<?xml version="1.0" encoding="UTF-8"?>
<svg version="1.1" xmlns="http://www.w3.org/2000/svg" width="37" height="38">
<path d="M0 0 C12.21 0 24.42 0 37 0 C37 12.54 37 25.08 37 38 C24.79 38 12.58 38 0 38 C0 25.46 0 12.92 0 0 Z " fill="#313131" transform="translate(0,0)"/>
<path d="M0 0 C1.051875 0.01160156 1.051875 0.01160156 2.125 0.0234375 C2.82625 0.01570312 3.5275 0.00796875 4.25 0 C6.125 0.3984375 6.125 0.3984375 8.125 3.3984375 C8.44662076 6.4859968 8.61224515 8.53859311 7.0625 11.2734375 C4.02685629 13.03606933 1.54701828 12.77174859 -1.875 12.3984375 C-4.18832486 8.92845021 -4.21457563 7.47334502 -3.875 3.3984375 C-1.875 0.3984375 -1.875 0.3984375 0 0 Z " fill="#C8C8C8" transform="translate(15.875,5.6015625)"/>
<path d="M0 0 C0.99 0 1.98 0 3 0 C3.33 0.99 3.66 1.98 4 3 C4.33 2.01 4.66 1.02 5 0 C6.32 0 7.64 0 9 0 C9 2.97 9 5.94 9 9 C8.2575 8.814375 7.515 8.62875 6.75 8.4375 C3.77159084 7.77947289 3.77159084 7.77947289 0 9 C0 6.03 0 3.06 0 0 Z " fill="#9F9F9F" transform="translate(21,21)"/>
<path d="M0 0 C2.625 0.375 2.625 0.375 5 1 C6.125 4.75 6.125 4.75 5 7 C3.02 7 1.04 7 -1 7 C-1.625 4.625 -1.625 4.625 -2 2 C-1.34 1.34 -0.68 0.68 0 0 Z " fill="#464646" transform="translate(16,8)"/>
<path d="M0 0 C0 0.66 0 1.32 0 2 C-0.804375 2.61875 -1.60875 3.2375 -2.4375 3.875 C-5.03064129 6.02540985 -5.65220835 6.75394458 -6 10 C-6.66 10 -7.32 10 -8 10 C-8.32899743 6.38102827 -8.44576634 4.60496861 -6.25 1.625 C-4 0 -4 0 0 0 Z " fill="#CACACA" transform="translate(16,20)"/>
<path d="M0 0 C0.66 0 1.32 0 2 0 C2.0825 1.11375 2.165 2.2275 2.25 3.375 C2.57873787 7.05753944 2.57873787 7.05753944 5.0625 8.4375 C5.701875 8.623125 6.34125 8.80875 7 9 C4.125 9.125 4.125 9.125 1 9 C-1 7 -1 7 -1.1875 3.9375 C-1 1 -1 1 0 0 Z " fill="#D6D6D6" transform="translate(13,8)"/>
<path d="M0 0 C0.99 0 1.98 0 3 0 C1.125 3.875 1.125 3.875 0 5 C-2.33297433 5.04092937 -4.66705225 5.04241723 -7 5 C-6.34 4.01 -5.68 3.02 -5 2 C-2.375 1.8125 -2.375 1.8125 0 2 C0 1.34 0 0.68 0 0 Z " fill="#AFAFAF" transform="translate(21,13)"/>
</svg>
