<?xml version="1.0" encoding="UTF-8"?>
<svg version="1.1" xmlns="http://www.w3.org/2000/svg" width="36" height="34">
<path d="M0 0 C11.88 0 23.76 0 36 0 C36 11.22 36 22.44 36 34 C24.12 34 12.24 34 0 34 C0 22.78 0 11.56 0 0 Z " fill="#333333" transform="translate(0,0)"/>
<path d="M0 0 C3.27901475 0.14395674 4.33416599 0.33445784 7.0625 2.3125 C8.5625 4.5 8.5625 4.5 9.5625 7.5 C10.408125 8.11875 11.25375 8.7375 12.125 9.375 C14.5625 11.5 14.5625 11.5 15.0625 14.0625 C14.48895247 16.85854421 13.84786295 17.82992708 11.5625 19.5 C10.9025 19.5 10.2425 19.5 9.5625 19.5 C9.8925 16.86 10.2225 14.22 10.5625 11.5 C9.964375 11.273125 9.36625 11.04625 8.75 10.8125 C6.5625 9.5 6.5625 9.5 5.25 6.875 C4.693125 6.09125 4.13625 5.3075 3.5625 4.5 C0.01999949 3.83323122 0.01999949 3.83323122 -3.4375 4.5 C-4.4275 5.985 -4.4275 5.985 -5.4375 7.5 C-7.5625 8.6875 -7.5625 8.6875 -9.4375 9.5 C-9.51177838 12.84252724 -9.50296953 15.3035914 -8.4375 18.5 C-12.3125 16.625 -12.3125 16.625 -13.4375 15.5 C-13.3125 12.1875 -13.3125 12.1875 -12.4375 8.5 C-10.0625 6.3125 -10.0625 6.3125 -7.4375 4.5 C-7.025 3.7575 -6.6125 3.015 -6.1875 2.25 C-4.00162992 0.06412992 -3.03449381 0.13860657 0 0 Z " fill="#C9C9C9" transform="translate(17.4375,5.5)"/>
<path d="M0 0 C0.99 0 1.98 0 3 0 C3 0.99 3 1.98 3 3 C3.66 3 4.32 3 5 3 C5 2.01 5 1.02 5 0 C5.99 0 6.98 0 8 0 C9.70699172 2.61069322 10.00187288 3.95317812 9.875 7.125 C9 10 9 10 6.9375 11.375 C6.298125 11.58125 5.65875 11.7875 5 12 C5 12.66 5 13.32 5 14 C4.34 14 3.68 14 3 14 C3 13.01 3 12.02 3 11 C1.68 10.67 0.36 10.34 -1 10 C-2.23076923 4.58461538 -2.23076923 4.58461538 -1.0625 1.625 C-0.5365625 0.820625 -0.5365625 0.820625 0 0 Z " fill="#CBCBCB" transform="translate(14,15)"/>
<path d="M0 0 C-0.25 1.875 -0.25 1.875 -1 4 C-3.0625 5.25 -3.0625 5.25 -5 6 C-5.07427838 9.34252724 -5.06546953 11.8035914 -4 15 C-7.875 13.125 -7.875 13.125 -9 12 C-8.93610097 8.67725068 -8.88360884 6.04121159 -6.6640625 3.42578125 C-2.63950573 0 -2.63950573 0 0 0 Z " fill="#CACACA" transform="translate(13,9)"/>
<path d="M0 0 C0.99 0 1.98 0 3 0 C3.33 1.32 3.66 2.64 4 4 C3.01 4.495 3.01 4.495 2 5 C2 6.32 2 7.64 2 9 C0.02 9 -1.96 9 -4 9 C-4 7.68 -4 6.36 -4 5 C-2.68 4.34 -1.36 3.68 0 3 C0 2.01 0 1.02 0 0 Z " fill="#AFAFAF" transform="translate(19,15)"/>
<path d="M0 0 C0.7940625 0.01417969 1.588125 0.02835937 2.40625 0.04296875 C3.59734375 0.05263672 3.59734375 0.05263672 4.8125 0.0625 C6.90625 0.23046875 6.90625 0.23046875 8.90625 1.23046875 C8.24625 2.55046875 7.58625 3.87046875 6.90625 5.23046875 C6.57625 4.90046875 6.24625 4.57046875 5.90625 4.23046875 C3.87585598 4.26269723 1.84496908 4.29858494 -0.18359375 4.390625 C-2.09375 4.23046875 -2.09375 4.23046875 -4.09375 2.23046875 C-2.09375 0.23046875 -2.09375 0.23046875 0 0 Z " fill="#B0B0B0" transform="translate(15.09375,5.76953125)"/>
<path d="M0 0 C1.32 0 2.64 0 4 0 C3.75 2.875 3.75 2.875 3 6 C0.9375 7.375 0.9375 7.375 -1 8 C-1.99 7.01 -2.98 6.02 -4 5 C-2.35 5 -0.7 5 1 5 C0.67 3.35 0.34 1.7 0 0 Z " fill="#BEBEBE" transform="translate(20,19)"/>
<path d="M0 0 C1.98 0 3.96 0 6 0 C6 0.99 6 1.98 6 3 C4.02 3 2.04 3 0 3 C0 2.01 0 1.02 0 0 Z " fill="#404040" transform="translate(15,21)"/>
</svg>
