<?xml version="1.0" encoding="UTF-8"?>
<svg version="1.1" xmlns="http://www.w3.org/2000/svg" width="35" height="37">
<path d="M0 0 C11.55 0 23.1 0 35 0 C35 12.21 35 24.42 35 37 C23.45 37 11.9 37 0 37 C0 24.79 0 12.58 0 0 Z " fill="#343434" transform="translate(0,0)"/>
<path d="M0 0 C1.670625 0.061875 1.670625 0.061875 3.375 0.125 C3.705 1.115 4.035 2.105 4.375 3.125 C1.735 3.125 -0.905 3.125 -3.625 3.125 C-3.625 9.725 -3.625 16.325 -3.625 23.125 C-0.985 23.125 1.655 23.125 4.375 23.125 C4.375 23.785 4.375 24.445 4.375 25.125 C2.89593108 25.15189216 1.41672517 25.17134621 -0.0625 25.1875 C-1.29806641 25.20490234 -1.29806641 25.20490234 -2.55859375 25.22265625 C-4.625 25.125 -4.625 25.125 -5.625 24.125 C-5.87656269 20.48600825 -5.81022226 16.83416327 -5.8125 13.1875 C-5.82474609 12.15947266 -5.83699219 11.13144531 -5.84960938 10.07226562 C-5.85154297 9.09064453 -5.85347656 8.10902344 -5.85546875 7.09765625 C-5.85957764 6.19281494 -5.86368652 5.28797363 -5.86791992 4.35571289 C-5.42350694 0.27470642 -3.90244114 0.13456694 0 0 Z " fill="#D8D8D8" transform="translate(13.625,5.875)"/>
<path d="M0 0 C0.99 0 1.98 0 3 0 C5.1875 2.5 5.1875 2.5 7 5 C5.71480435 7.86697492 4.42870746 9.97607712 2 12 C1.34 12 0.68 12 0 12 C0.66 10.35 1.32 8.7 2 7 C-0.64 7 -3.28 7 -6 7 C-6 6.34 -6 5.68 -6 5 C-3.36 5 -0.72 5 2 5 C1.34 3.35 0.68 1.7 0 0 Z " fill="#CCCCCC" transform="translate(23,13)"/>
<path d="M0 0 C2.31 0 4.62 0 7 0 C7.33 0.99 7.66 1.98 8 3 C4.7 3.33 1.4 3.66 -2 4 C-1.34 2.68 -0.68 1.36 0 0 Z " fill="#B5B5B5" transform="translate(10,6)"/>
<path d="M0 0 C1.98 0.99 1.98 0.99 4 2 C3.34 3.32 2.68 4.64 2 6 C1.34 6 0.68 6 0 6 C0 4.02 0 2.04 0 0 Z " fill="#DDDDDD" transform="translate(26,16)"/>
</svg>
