<?xml version="1.0" encoding="UTF-8"?>
<svg version="1.1" xmlns="http://www.w3.org/2000/svg" width="31" height="34">
<path d="M0 0 C10.23 0 20.46 0 31 0 C31 11.22 31 22.44 31 34 C20.77 34 10.54 34 0 34 C0 22.78 0 11.56 0 0 Z " fill="#262626" transform="translate(0,0)"/>
<path d="M0 0 C0.69609375 0.05800781 1.3921875 0.11601563 2.109375 0.17578125 C3.965625 0.33046875 3.965625 0.33046875 5.859375 0.48828125 C5.859375 1.14828125 5.859375 1.80828125 5.859375 2.48828125 C3.549375 3.14828125 1.239375 3.80828125 -1.140625 4.48828125 C-1.140625 10.42828125 -1.140625 16.36828125 -1.140625 22.48828125 C4.799375 22.48828125 10.739375 22.48828125 16.859375 22.48828125 C17.849375 19.02328125 17.849375 19.02328125 18.859375 15.48828125 C19.519375 15.48828125 20.179375 15.48828125 20.859375 15.48828125 C21.34765625 21.34765625 21.34765625 21.34765625 20.859375 23.48828125 C18.00487756 26.64644863 16.28845074 27.42849201 12.046875 28.01953125 C10.65104255 28.03006583 9.25490521 28.0191786 7.859375 27.98828125 C7.16070312 28.00375 6.46203125 28.01921875 5.7421875 28.03515625 C2.12040662 28.00782205 0.00707481 27.58098645 -3.078125 25.64453125 C-6.68596672 21.87269672 -6.3593935 18.1353164 -6.453125 13.11328125 C-6.49050781 11.80617188 -6.52789062 10.4990625 -6.56640625 9.15234375 C-6.04491437 4.66464298 -4.76500619 1.08690835 0 0 Z " fill="#999999" transform="translate(7.140625,3.51171875)"/>
<path d="M0 0 C1 1 1 1 1.37890625 3.69921875 C0.88607602 7.99243058 -1.06296116 9.95411593 -4.0625 12.8125 C-4.52849609 13.30169922 -4.99449219 13.79089844 -5.47460938 14.29492188 C-9.08955606 17.85084902 -11.98039287 18.82182545 -17 19 C-17.33 18.67 -17.66 18.34 -18 18 C-17.79083216 12.10723714 -15.96582096 9.0188255 -11.8125 5.0625 C-11.34263672 4.56943359 -10.87277344 4.07636719 -10.38867188 3.56835938 C-6.98242187 0.21787335 -4.72897783 -0.66383625 0 0 Z " fill="#ACACAC" transform="translate(27,4)"/>
<path d="M0 0 C-0.567092 3.76650659 -2.13776679 5.54254118 -4.8125 8.1875 C-5.84310547 9.22970703 -5.84310547 9.22970703 -6.89453125 10.29296875 C-9.01297069 12.01051613 -10.33735732 12.59910773 -13 13 C-11.66531083 9.05125638 -10.0199164 6.61187264 -7.0625 3.6875 C-6.37285156 2.99011719 -5.68320312 2.29273438 -4.97265625 1.57421875 C-3 0 -3 0 0 0 Z " fill="#313131" transform="translate(25,7)"/>
<path d="M0 0 C1.98 0 3.96 0 6 0 C6 0.66 6 1.32 6 2 C3.36 2.66 0.72 3.32 -2 4 C-1.34 2.68 -0.68 1.36 0 0 Z " fill="#B1B1B1" transform="translate(7,4)"/>
</svg>
