<?xml version="1.0" encoding="UTF-8"?>
<svg version="1.1" xmlns="http://www.w3.org/2000/svg" width="50" height="50">
<path d="M0 0 C16.5 0 33 0 50 0 C50 16.5 50 33 50 50 C33.5 50 17 50 0 50 C0 33.5 0 17 0 0 Z " fill="#171717" transform="translate(0,0)"/>
<path d="M0 0 C3.84867223 1.97931715 6.51504511 4.93439536 8 9 C7.82384519 12.08690336 7.36440267 15.06949071 6.8984375 18.125 C6.69590043 21.13531091 6.69590043 21.13531091 8.9765625 23.1875 C9.64429687 23.785625 10.31203125 24.38375 11 25 C11 25.99 11 26.98 11 28 C8.48696195 27.56671758 7.28483439 27.3219867 5.5625 25.375 C5.046875 24.92125 4.53125 24.4675 4 24 C1.69254991 24.29329272 1.69254991 24.29329272 -1 25 C-5.73663992 25.3759238 -8.03309394 25.47433128 -12.3125 23.375 C-16.13543137 19.99659554 -17.70267827 17.0387776 -18.4375 12 C-17.76944472 7.41904948 -15.58074254 4.41594172 -12.1640625 1.35546875 C-8.33786742 -1.04108304 -4.35072777 -0.74113344 0 0 Z " fill="#1A1A1A" transform="translate(26,11)"/>
<path d="M0 0 C3.84867223 1.97931715 6.51504511 4.93439536 8 9 C7.82384519 12.08690336 7.36440267 15.06949071 6.8984375 18.125 C6.69590043 21.13531091 6.69590043 21.13531091 8.9765625 23.1875 C9.64429687 23.785625 10.31203125 24.38375 11 25 C11 25.99 11 26.98 11 28 C8.48696195 27.56671758 7.28483439 27.3219867 5.5625 25.375 C5.046875 24.92125 4.53125 24.4675 4 24 C1.69254991 24.29329272 1.69254991 24.29329272 -1 25 C-5.73663992 25.3759238 -8.03309394 25.47433128 -12.3125 23.375 C-16.13543137 19.99659554 -17.70267827 17.0387776 -18.4375 12 C-17.76944472 7.41904948 -15.58074254 4.41594172 -12.1640625 1.35546875 C-8.33786742 -1.04108304 -4.35072777 -0.74113344 0 0 Z M-12 4.9375 C-14.32353289 8.49540974 -14.79544168 10.65265527 -14.55078125 14.83984375 C-13.92326434 17.30095619 -13.22724996 18.34709173 -11.375 20.0625 C-7.70826804 22.16747575 -6.1309183 22.70313503 -2 22 C0.80915461 20.72311154 2.50106764 19.68900183 4.3125 17.1875 C5.24084633 14.23367076 5.37765935 12.084218 5 9 C3.20006226 6.30009338 1.916227 4.4581135 -1 3 C-6.85549031 2.41879301 -6.85549031 2.41879301 -12 4.9375 Z " fill="#A4A4A4" transform="translate(26,11)"/>
</svg>
