<?xml version="1.0" encoding="UTF-8"?>
<svg version="1.1" xmlns="http://www.w3.org/2000/svg" width="34" height="36">
<path d="M0 0 C11.22 0 22.44 0 34 0 C34 11.88 34 23.76 34 36 C22.78 36 11.56 36 0 36 C0 24.12 0 12.24 0 0 Z " fill="#313131" transform="translate(0,0)"/>
<path d="M0 0 C3 -0.375 3 -0.375 6 0 C6.66 0.99 7.32 1.98 8 3 C11.05429073 4.21284876 11.05429073 4.21284876 14 5 C14.95595136 9.77975679 15.23869279 14.14657994 15 19 C13 22 13 22 10.5625 22.5 C9.2940625 22.7475 9.2940625 22.7475 8 23 C7.505 23.515625 7.01 24.03125 6.5 24.5625 C5 26 5 26 2.4375 26.375 C1.633125 26.25125 0.82875 26.1275 0 26 C-0.66 25.01 -1.32 24.02 -2 23 C-5.05429073 21.78715124 -5.05429073 21.78715124 -8 21 C-8.95595136 16.22024321 -9.23869279 11.85342006 -9 7 C-8.34 6.01 -7.68 5.02 -7 4 C-5.33333333 3.66666667 -3.66666667 3.33333333 -2 3 C-1.34 2.01 -0.68 1.02 0 0 Z " fill="#3A3A3A" transform="translate(14,5)"/>
<path d="M0 0 C3 -0.375 3 -0.375 6 0 C6.66 0.99 7.32 1.98 8 3 C11.05429073 4.21284876 11.05429073 4.21284876 14 5 C14.95595136 9.77975679 15.23869279 14.14657994 15 19 C13 22 13 22 10.5625 22.5 C9.2940625 22.7475 9.2940625 22.7475 8 23 C7.505 23.515625 7.01 24.03125 6.5 24.5625 C5 26 5 26 2.4375 26.375 C1.633125 26.25125 0.82875 26.1275 0 26 C-0.66 25.01 -1.32 24.02 -2 23 C-5.05429073 21.78715124 -5.05429073 21.78715124 -8 21 C-8.95595136 16.22024321 -9.23869279 11.85342006 -9 7 C-8.34 6.01 -7.68 5.02 -7 4 C-5.33333333 3.66666667 -3.66666667 3.33333333 -2 3 C-1.34 2.01 -0.68 1.02 0 0 Z M2 2 C1.608125 2.639375 1.21625 3.27875 0.8125 3.9375 C-1 6 -1 6 -6 7 C-6 10.96 -6 14.92 -6 19 C-5.05125 19.268125 -4.1025 19.53625 -3.125 19.8125 C0 21 0 21 2 24 C5.27773504 23.24849977 5.27773504 23.24849977 7 20 C8.65 19.67 10.3 19.34 12 19 C12 15.04 12 11.08 12 7 C10.35 7 8.7 7 7 7 C6.5978125 6.0409375 6.5978125 6.0409375 6.1875 5.0625 C5.11332248 2.66868314 5.11332248 2.66868314 2 2 Z " fill="#CBCBCB" transform="translate(14,5)"/>
<path d="M0 0 C2.5625 0.375 2.5625 0.375 4.25 2.375 C4.683125 3.035 5.11625 3.695 5.5625 4.375 C6.2225 4.375 6.8825 4.375 7.5625 4.375 C7.995625 3.715 8.42875 3.055 8.875 2.375 C10.5625 0.375 10.5625 0.375 13.25 0.125 C14.013125 0.2075 14.77625 0.29 15.5625 0.375 C15.8925 1.365 16.2225 2.355 16.5625 3.375 C15.4178125 3.5296875 15.4178125 3.5296875 14.25 3.6875 C11.53295327 4.13093985 11.53295327 4.13093985 10.0625 5.9375 C8.5625 7.375 8.5625 7.375 6 7.75 C4.7934375 7.564375 4.7934375 7.564375 3.5625 7.375 C2.9025 6.385 2.2425 5.395 1.5625 4.375 C-1.49179073 3.16215124 -1.49179073 3.16215124 -4.4375 2.375 C-2.4375 0.375 -2.4375 0.375 0 0 Z " fill="#C6C6C6" transform="translate(10.4375,23.625)"/>
<path d="M0 0 C1.98 0 3.96 0 6 0 C6.625 2.875 6.625 2.875 7 6 C6.34 6.66 5.68 7.32 5 8 C2.375 7.625 2.375 7.625 0 7 C-1.125 2.25 -1.125 2.25 0 0 Z " fill="#9B9B9B" transform="translate(14,14)"/>
<path d="M0 0 C0.66 0 1.32 0 2 0 C2.02696365 1.79158489 2.04637917 3.58328473 2.0625 5.375 C2.07410156 6.37273438 2.08570313 7.37046875 2.09765625 8.3984375 C2 11 2 11 1 13 C-0.98 13 -2.96 13 -5 13 C-3.68 12.67 -2.36 12.34 -1 12 C-1.09539063 11.38511719 -1.19078125 10.77023438 -1.2890625 10.13671875 C-1.39992188 9.32847656 -1.51078125 8.52023438 -1.625 7.6875 C-1.74101562 6.88699219 -1.85703125 6.08648437 -1.9765625 5.26171875 C-2 3 -2 3 0 0 Z " fill="#CECECE" transform="translate(27,13)"/>
<path d="M0 0 C0.66 0 1.32 0 2 0 C3.9078584 3.1749094 4.1609041 5.10585211 3.625 8.75 C3.51414062 9.54921875 3.40328125 10.3484375 3.2890625 11.171875 C3.19367187 11.77515625 3.09828125 12.3784375 3 13 C2.01 12.67 1.02 12.34 0 12 C0 8.04 0 4.08 0 0 Z " fill="#CECECE" transform="translate(5,12)"/>
<path d="M0 0 C0.66 0 1.32 0 2 0 C1.67 1.65 1.34 3.3 1 5 C-0.65 5.33 -2.3 5.66 -4 6 C-4.66 4.68 -5.32 3.36 -6 2 C-5.34 1.67 -4.68 1.34 -4 1 C-3.67 1.66 -3.34 2.32 -3 3 C-2.34 3 -1.68 3 -1 3 C-0.67 2.01 -0.34 1.02 0 0 Z " fill="#D5D5D5" transform="translate(19,16)"/>
<path d="M0 0 C0.763125 0.0825 1.52625 0.165 2.3125 0.25 C2.6425 1.24 2.9725 2.23 3.3125 3.25 C2.136875 3.435625 2.136875 3.435625 0.9375 3.625 C-1.82807822 4.04117993 -1.82807822 4.04117993 -3.6875 6.25 C-4.3475 5.59 -5.0075 4.93 -5.6875 4.25 C-3.34903846 0.31153846 -3.34903846 0.31153846 0 0 Z " fill="#AEAEAE" transform="translate(23.6875,23.75)"/>
<path d="M0 0 C1.65 0 3.3 0 5 0 C5.66 1.32 6.32 2.64 7 4 C6.34 4 5.68 4 5 4 C4.67 4.66 4.34 5.32 4 6 C4 5.01 4 4.02 4 3 C2.35 3 0.7 3 -1 3 C-0.67 2.01 -0.34 1.02 0 0 Z " fill="#AEAEAE" transform="translate(22,9)"/>
<path d="M0 0 C0.33 0.66 0.66 1.32 1 2 C-1.31 2.33 -3.62 2.66 -6 3 C-6.33 2.34 -6.66 1.68 -7 1 C-4.53721199 -0.231394 -2.7204945 -0.07159196 0 0 Z " fill="#AEAEAE" transform="translate(13,24)"/>
<path d="M0 0 C1.2065625 0.0309375 1.2065625 0.0309375 2.4375 0.0625 C2.7675 1.0525 3.0975 2.0425 3.4375 3.0625 C1.7875 3.0625 0.1375 3.0625 -1.5625 3.0625 C-1.8925 4.0525 -2.2225 5.0425 -2.5625 6.0625 C-2.94468767 4.40635343 -3.27645102 2.73792976 -3.5625 1.0625 C-2.5625 0.0625 -2.5625 0.0625 0 0 Z " fill="#ABABAB" transform="translate(9.5625,8.9375)"/>
</svg>
