<?xml version="1.0" encoding="UTF-8"?>
<svg version="1.1" xmlns="http://www.w3.org/2000/svg" width="35" height="31">
<path d="M0 0 C11.55 0 23.1 0 35 0 C35 10.23 35 20.46 35 31 C23.45 31 11.9 31 0 31 C0 20.77 0 10.54 0 0 Z " fill="#A1A1A1" transform="translate(0,0)"/>
<path d="M0 0 C10 0 10 0 14 3 C14.40738428 5.82772621 14.56016044 8.18248606 14.5 11 C14.51546875 11.72445313 14.5309375 12.44890625 14.546875 13.1953125 C14.53125 15.3125 14.53125 15.3125 14 19 C10 22 10 22 0 22 C0 14.74 0 7.48 0 0 Z " fill="#2B2B2B" transform="translate(16,4)"/>
<path d="M0 0 C11.55 0 23.1 0 35 0 C35 10.23 35 20.46 35 31 C23.45 31 11.9 31 0 31 C0 20.77 0 10.54 0 0 Z M1 6 C0.26954335 8.90137381 0.3366794 11.58955472 0.5 14.5625 C0.5103125 15.31724609 0.520625 16.07199219 0.53125 16.84960938 C0.65241436 22.27638304 0.65241436 22.27638304 3 27 C7.49154579 29.70816494 11.83164658 29.36766927 16.9375 29.375 C17.83146484 29.39949219 18.72542969 29.42398437 19.64648438 29.44921875 C23.94469062 29.46836443 26.34213641 29.4072888 30.06640625 27.1015625 C33.57825867 23.28464008 33.31710135 19.65705804 33.4375 14.6875 C33.50614258 13.54764648 33.50614258 13.54764648 33.57617188 12.38476562 C33.66202414 8.0884197 33.36795616 6.46009478 30.59765625 2.99609375 C26.39585746 0.08581875 21.94697117 0.26587564 17 0.375 C15.68515625 0.34599609 15.68515625 0.34599609 14.34375 0.31640625 C8.23049196 0.36243982 4.9037264 1.13935365 1 6 Z " fill="#232323" transform="translate(0,0)"/>
<path d="M0 0 C2.31 0 4.62 0 7 0 C7 6.6 7 13.2 7 20 C4.69 20 2.38 20 0 20 C-2.55948999 17.44051001 -2.26068731 15.72792805 -2.2734375 12.234375 C-2.26570312 11.49703125 -2.25796875 10.7596875 -2.25 10 C-2.25773438 9.26265625 -2.26546875 8.5253125 -2.2734375 7.765625 C-2.2533196 2.2533196 -2.2533196 2.2533196 0 0 Z " fill="#383838" transform="translate(6,5)"/>
</svg>
