<?xml version="1.0" encoding="UTF-8"?>
<svg version="1.1" xmlns="http://www.w3.org/2000/svg" width="43" height="44">
<path d="M0 0 C14.19 0 28.38 0 43 0 C43 14.52 43 29.04 43 44 C28.81 44 14.62 44 0 44 C0 29.48 0 14.96 0 0 Z " fill="#252525" transform="translate(0,0)"/>
<path d="M0 0 C14.19 0 28.38 0 43 0 C43 14.52 43 29.04 43 44 C28.81 44 14.62 44 0 44 C0 29.48 0 14.96 0 0 Z M4.19921875 12.28125 C1.14646491 16.65653237 1.44851389 21.89681166 2 27 C3.81176606 32.39388637 7.51685666 35.75687503 12 39 C17.34604044 40.78201348 22.30284808 40.48900988 27.6875 38.9375 C32.06664097 36.37611566 36.00818556 33.00549832 37.64453125 28.046875 C38.69528394 21.996387 38.714704 16.81763377 35.2734375 11.5703125 C32.1867116 7.76398179 28.92403334 4.90366155 24 4 C15.06649286 3.15537751 9.94439467 5.40513394 4.19921875 12.28125 Z " fill="#212121" transform="translate(0,0)"/>
<path d="M0 0 C4.90438132 2.86860039 8.49863147 6.49589442 10.3125 11.9375 C10.91411973 17.90741886 10.39711718 22.66379966 7.3125 27.9375 C3.31929277 32.21042465 0.04315554 34.58478348 -5.8359375 35.140625 C-10.90729352 35.24739039 -14.38250335 34.90316436 -18.6875 31.9375 C-23.2902439 27.36716979 -25.80396964 23.83189748 -26 17.1875 C-25.92264175 11.28248714 -24.44226728 7.70665248 -20.19140625 3.43359375 C-14.02982744 -1.9597084 -7.63368533 -2.19953645 0 0 Z M-22.125 8.0625 C-24.35102708 12.55310008 -24.45844431 17.04436364 -23.6875 21.9375 C-22.35486065 25.87552414 -20.13799616 28.50897926 -17.125 31.375 C-11.2111913 34.06309486 -5.34714791 33.85628746 0.75 31.75 C4.57414212 29.04511899 6.82909586 26.38771241 8.3125 21.9375 C9.0410368 15.1059746 8.58171249 10.41084935 4.3125 4.9375 C-0.45764043 1.21679047 -4.22398215 0.27432515 -10.2578125 0.55859375 C-15.67720993 1.40374094 -18.71980115 3.69686045 -22.125 8.0625 Z " fill="#424242" transform="translate(27.6875,5.0625)"/>
<path d="M0 0 C5.42857143 -0.36190476 5.42857143 -0.36190476 7.875 1.1875 C9.34781139 3.56036279 9.22223194 5.25913944 9 8 C8.236875 7.690625 7.47375 7.38125 6.6875 7.0625 C4.81210323 6.32106407 2.91315348 5.63771783 1 5 C1 5.66 1 6.32 1 7 C1.66 7.33 2.32 7.66 3 8 C0.69 8 -1.62 8 -4 8 C-4 9.32 -4 10.64 -4 12 C-2.35 12 -0.7 12 1 12 C1.33 12.66 1.66 13.32 2 14 C-0.6875 15.625 -0.6875 15.625 -4 17 C-6.875 16.1875 -6.875 16.1875 -9 15 C-9 15.99 -9 16.98 -9 18 C-4.53160785 18.21278058 -1.17737474 17.59138085 3 16 C3 14.02 3 12.04 3 10 C3.99 10.33 4.98 10.66 6 11 C6.75 14.25 6.75 14.25 7 18 C5.375 20.4375 5.375 20.4375 3 22 C-1.41122961 22.85773909 -6.269607 21.438482 -10 19 C-12.46710483 15.22581977 -13.76721861 10.47544188 -13 6 C-11.625 4.1875 -11.625 4.1875 -10 3 C-9.34 3 -8.68 3 -8 3 C-8 3.66 -8 4.32 -8 5 C-8.99 5.495 -8.99 5.495 -10 6 C-10.33425735 8.37374861 -10.33425735 8.37374861 -10 11 C-7.72285584 13.19862195 -6.02076303 13.99307899 -3 15 C-3 14.34 -3 13.68 -3 13 C-3.99 12.67 -4.98 12.34 -6 12 C-5.67 9.03 -5.34 6.06 -5 3 C-4.67 3.99 -4.34 4.98 -4 6 C-3.113125 5.46375 -2.22625 4.9275 -1.3125 4.375 C2 3 2 3 4.875 3.8125 C5.57625 4.204375 6.2775 4.59625 7 5 C5.33045181 1.77595022 5.33045181 1.77595022 2.375 1.3125 C1.199375 1.1578125 1.199375 1.1578125 0 1 C0 0.67 0 0.34 0 0 Z " fill="#C8C8C8" transform="translate(21,12)"/>
<path d="M0 0 C2.2421875 0.75 2.2421875 0.75 3.546875 2.625 C4.2421875 4.75 4.2421875 4.75 4.2421875 7.75 C3.5409375 7.37875 2.8396875 7.0075 2.1171875 6.625 C-1.52224901 5.51734541 -3.31481661 6.30874591 -6.7578125 7.75 C-7.0878125 9.73 -7.4178125 11.71 -7.7578125 13.75 C-7.0978125 14.08 -6.4378125 14.41 -5.7578125 14.75 C-5.7578125 15.41 -5.7578125 16.07 -5.7578125 16.75 C-8.4214094 16.39005447 -10.33964702 16.03838998 -12.5703125 14.5 C-14.15146045 12.16988723 -13.98118946 10.50498245 -13.7578125 7.75 C-12.7678125 7.42 -11.7778125 7.09 -10.7578125 6.75 C-11.0878125 5.76 -11.4178125 4.77 -11.7578125 3.75 C-8.51984133 -1.10695676 -5.2767763 -0.50105888 0 0 Z " fill="#B6B6B6" transform="translate(23.7578125,10.25)"/>
<path d="M0 0 C3.93383553 0.5619765 6.87020891 1.49616713 10 4 C10.5 6.5 10.5 6.5 10 9 C8.625 10.8125 8.625 10.8125 7 12 C6.34 12 5.68 12 5 12 C4.87625 11.030625 4.7525 10.06125 4.625 9.0625 C4.41875 8.051875 4.2125 7.04125 4 6 C3.34 5.67 2.68 5.34 2 5 C2 6.98 2 8.96 2 11 C-1.44833324 13.05257931 -3.31661591 14.0632763 -7.375 13.6875 C-8.24125 13.460625 -9.1075 13.23375 -10 13 C-10.33 11.68 -10.66 10.36 -11 9 C-10.0925 9.391875 -9.185 9.78375 -8.25 10.1875 C-5.03947071 11.39067945 -5.03947071 11.39067945 -2.625 9.625 C-2.08875 9.08875 -1.5525 8.5525 -1 8 C-2.32 7.67 -3.64 7.34 -5 7 C-5 5.68 -5 4.36 -5 3 C-3.35 2.67 -1.7 2.34 0 2 C0 1.34 0 0.68 0 0 Z " fill="#CBCBCB" transform="translate(22,17)"/>
<path d="M0 0 C0.86625 0.37125 1.7325 0.7425 2.625 1.125 C6.55697326 2.14440048 8.32937509 1.57312496 12 0 C11 3 11 3 9.3125 4.25 C6.26772958 5.23749311 4.08088616 4.7002014 1 4 C0.67 2.68 0.34 1.36 0 0 Z " fill="#3B3B3B" transform="translate(11,26)"/>
<path d="M0 0 C0 1.32 0 2.64 0 4 C-3.75 5.125 -3.75 5.125 -6 4 C-6 2.68 -6 1.36 -6 0 C-3.50907189 -1.24546405 -2.58919267 -0.7767578 0 0 Z " fill="#303030" transform="translate(23,20)"/>
<path d="M0 0 C2.3125 0.9375 2.3125 0.9375 3.625 3 C3.9653125 3.9590625 3.9653125 3.9590625 4.3125 4.9375 C3.44625 4.56625 2.58 4.195 1.6875 3.8125 C-2.24447326 2.79309952 -4.01687509 3.36437504 -7.6875 4.9375 C-7.6875 4.2775 -7.6875 3.6175 -7.6875 2.9375 C-5.00282192 0.86646263 -3.42697077 -0.07969699 0 0 Z " fill="#383838" transform="translate(24.6875,13.0625)"/>
<path d="M0 0 C2.6635969 0.35994553 4.58183452 0.71161002 6.8125 2.25 C8.39364795 4.58011277 8.22337696 6.24501755 8 9 C7.01 9.495 7.01 9.495 6 10 C5.7525 9.05125 5.505 8.1025 5.25 7.125 C4.3142923 3.91306809 4.3142923 3.91306809 1.875 2.625 C1.25625 2.41875 0.6375 2.2125 0 2 C0 1.34 0 0.68 0 0 Z " fill="#2F2F2F" transform="translate(22,17)"/>
<path d="M0 0 C0.33 0 0.66 0 1 0 C1.2475 0.94875 1.495 1.8975 1.75 2.875 C2.6857077 6.08693191 2.6857077 6.08693191 5.125 7.375 C5.74375 7.58125 6.3625 7.7875 7 8 C7 8.66 7 9.32 7 10 C4.3364031 9.64005447 2.41816548 9.28838998 0.1875 7.75 C-1.40975379 5.3961523 -1.29313806 3.78481156 -1 1 C-0.67 0.67 -0.34 0.34 0 0 Z " fill="#2F2F2F" transform="translate(11,17)"/>
<path d="M0 0 C1.2065625 0.0309375 1.2065625 0.0309375 2.4375 0.0625 C1.963125 0.413125 1.48875 0.76375 1 1.125 C-1.24123825 3.90413543 -1.23367658 6.5769717 -1.5625 10.0625 C-2.2225 10.0625 -2.8825 10.0625 -3.5625 10.0625 C-3.58939216 8.58343108 -3.60884621 7.10422517 -3.625 5.625 C-3.63660156 4.80128906 -3.64820313 3.97757813 -3.66015625 3.12890625 C-3.51340586 0.02366796 -3.12550237 0.07623177 0 0 Z " fill="#303030" transform="translate(17.5625,11.9375)"/>
<path d="M0 0 C0.66 0 1.32 0 2 0 C2.125 7.75 2.125 7.75 1 10 C-0.65 10 -2.3 10 -4 10 C-3.525625 9.649375 -3.05125 9.29875 -2.5625 8.9375 C-0.32126175 6.15836457 -0.32882342 3.4855283 0 0 Z " fill="#2E2E2E" transform="translate(24,22)"/>
</svg>
