<?xml version="1.0" encoding="UTF-8"?>
<svg version="1.1" xmlns="http://www.w3.org/2000/svg" width="34" height="35">
<path d="M0 0 C11.22 0 22.44 0 34 0 C34 11.55 34 23.1 34 35 C22.78 35 11.56 35 0 35 C0 23.45 0 11.9 0 0 Z " fill="#313131" transform="translate(0,0)"/>
<path d="M0 0 C0.33 0.99 0.66 1.98 1 3 C3.97503122 4.15835673 3.97503122 4.15835673 7 5 C8 6 8 6 8.09765625 9.16015625 C8.08605469 10.44792969 8.07445313 11.73570313 8.0625 13.0625 C8.05347656 14.35285156 8.04445313 15.64320312 8.03515625 16.97265625 C8.02355469 17.97167969 8.01195313 18.97070312 8 20 C6.35 20.66 4.7 21.32 3 22 C3 22.66 3 23.32 3 24 C-1.35940542 26.24575431 -4.27138757 26.22291701 -9 25 C-12.15374202 23.90571914 -14.10518277 22.79004971 -16 20 C-17.13986935 15.10978329 -17.19353686 10.8826508 -16 6 C-11.83292443 0.75696181 -6.45550774 -0.82410737 0 0 Z " fill="#404040" transform="translate(21,5)"/>
<path d="M0 0 C0.33 0.99 0.66 1.98 1 3 C3.97503122 4.15835673 3.97503122 4.15835673 7 5 C8 6 8 6 8.09765625 9.16015625 C8.08605469 10.44792969 8.07445313 11.73570313 8.0625 13.0625 C8.05347656 14.35285156 8.04445313 15.64320312 8.03515625 16.97265625 C8.02355469 17.97167969 8.01195313 18.97070312 8 20 C6.35 20.66 4.7 21.32 3 22 C3 22.66 3 23.32 3 24 C-1.35940542 26.24575431 -4.27138757 26.22291701 -9 25 C-12.15374202 23.90571914 -14.10518277 22.79004971 -16 20 C-17.13986935 15.10978329 -17.19353686 10.8826508 -16 6 C-11.83292443 0.75696181 -6.45550774 -0.82410737 0 0 Z M-9 4 C-9 4.66 -9 5.32 -9 6 C-10.65 6.33 -12.3 6.66 -14 7 C-14.79524843 14.28073729 -14.79524843 14.28073729 -11.9375 20.625 C-8.38548741 22.28764419 -5.94299468 23 -2 23 C0.59993537 21.91035847 2.64124337 20.58855039 5 19 C5 15.04 5 11.08 5 7 C3.906875 6.34 2.81375 5.68 1.6875 5 C1.07261719 4.62875 0.45773438 4.2575 -0.17578125 3.875 C-3.26787765 2.39185312 -5.83871152 3.12792042 -9 4 Z " fill="#BCBCBC" transform="translate(21,5)"/>
<path d="M0 0 C0.66 0 1.32 0 2 0 C2 3.96 2 7.92 2 12 C-4.27692308 16.06153846 -4.27692308 16.06153846 -7.9375 15.75 C-8.618125 15.5025 -9.29875 15.255 -10 15 C-9.34 14.67 -8.68 14.34 -8 14 C-7.34444881 11.47266765 -7.34444881 11.47266765 -7 9 C-6.01 9 -5.02 9 -4 9 C-3.34 7.35 -2.68 5.7 -2 4 C-1.34 4 -0.68 4 0 4 C0 2.68 0 1.36 0 0 Z " fill="#333333" transform="translate(24,12)"/>
<path d="M0 0 C0.33 0 0.66 0 1 0 C1 3.63 1 7.26 1 11 C1.66 11 2.32 11 3 11 C2.67 11.99 2.34 12.98 2 14 C-0.0625 14.6875 -0.0625 14.6875 -2 15 C-2 15.66 -2 16.32 -2 17 C-6.33782222 19.23463569 -9.29003174 19.17749207 -14 18 C-16.9375 15.9375 -16.9375 15.9375 -19 14 C-18.19175781 14.10699219 -17.38351563 14.21398438 -16.55078125 14.32421875 C-14.94783203 14.50404297 -14.94783203 14.50404297 -13.3125 14.6875 C-11.72888672 14.87892578 -11.72888672 14.87892578 -10.11328125 15.07421875 C-6.50749173 14.9882589 -4.93483206 13.99938646 -2 12 C-1.34 12 -0.68 12 0 12 C0 8.04 0 4.08 0 0 Z " fill="#B0B0B0" transform="translate(26,12)"/>
<path d="M0 0 C2.125 0.375 2.125 0.375 4 1 C3.01 1.66 2.02 2.32 1 3 C0.55884662 5.56095354 0.55884662 5.56095354 0.6875 8.4375 C0.69136719 9.40558594 0.69523438 10.37367187 0.69921875 11.37109375 C0.82368001 14.23008817 0.82368001 14.23008817 3 17 C1.35 16.67 -0.3 16.34 -2 16 C-2.05384521 13.70858714 -2.09272087 11.41681812 -2.125 9.125 C-2.14820313 7.84882813 -2.17140625 6.57265625 -2.1953125 5.2578125 C-2 2 -2 2 0 0 Z " fill="#D4D4D4" transform="translate(7,9)"/>
<path d="M0 0 C2.5 1.375 2.5 1.375 5 3 C5 3.66 5 4.32 5 5 C3.37373596 6.38232443 1.7074998 7.71937515 0 9 C-0.33 7.68 -0.66 6.36 -1 5 C-1.99 5 -2.98 5 -4 5 C-4 4.34 -4 3.68 -4 3 C-3.01 2.67 -2.02 2.34 -1 2 C-0.67 1.34 -0.34 0.68 0 0 Z " fill="#C7C7C7" transform="translate(14,16)"/>
<path d="M0 0 C0.99 0.66 1.98 1.32 3 2 C1.92598892 4.91517292 1.22189824 6.77810176 -1 9 C-1 8.34 -1 7.68 -1 7 C-1.9590625 6.566875 -1.9590625 6.566875 -2.9375 6.125 C-5 5 -5 5 -6 3 C-4.02 2.67 -2.04 2.34 0 2 C0 1.34 0 0.68 0 0 Z " fill="#797979" transform="translate(20,12)"/>
<path d="M0 0 C3.91211733 1.15585285 6.8745041 2.35534962 10 5 C8.3125 5.6875 8.3125 5.6875 6 6 C3.3125 4.75 3.3125 4.75 1 3 C0.67 2.01 0.34 1.02 0 0 Z " fill="#BEBEBE" transform="translate(18,6)"/>
<path d="M0 0 C1.43836751 0.11458693 2.87570966 0.24209116 4.3125 0.375 C5.51326172 0.47941406 5.51326172 0.47941406 6.73828125 0.5859375 C9 1 9 1 12 3 C10.824375 2.9690625 10.824375 2.9690625 9.625 2.9375 C7.01885039 2.81315937 7.01885039 2.81315937 5 4 C3.35 2.68 1.7 1.36 0 0 Z " fill="#A0A0A0" transform="translate(7,26)"/>
</svg>
