<?xml version="1.0" encoding="UTF-8"?>
<svg version="1.1" xmlns="http://www.w3.org/2000/svg" width="35" height="37">
<path d="M0 0 C11.55 0 23.1 0 35 0 C35 12.21 35 24.42 35 37 C23.45 37 11.9 37 0 37 C0 24.79 0 12.58 0 0 Z " fill="#333333" transform="translate(0,0)"/>
<path d="M0 0 C0.7321875 0.01869141 1.464375 0.03738281 2.21875 0.05664062 C7.55184863 0.23934863 7.55184863 0.23934863 8.75 1.4375 C8.82179964 2.95678038 8.83392007 4.47917482 8.8125 6 C8.80347656 6.82628906 8.79445313 7.65257812 8.78515625 8.50390625 C8.77355469 9.14199219 8.76195313 9.78007812 8.75 10.4375 C8.09 10.4375 7.43 10.4375 6.75 10.4375 C6.42 8.1275 6.09 5.8175 5.75 3.4375 C2.78 3.1075 -0.19 2.7775 -3.25 2.4375 C-3.188125 3.200625 -3.12625 3.96375 -3.0625 4.75 C-3.25 7.4375 -3.25 7.4375 -4.4375 9.25 C-6.80982525 10.80428206 -8.47041345 10.66287188 -11.25 10.4375 C-10.92 13.4075 -10.59 16.3775 -10.25 19.4375 C-7.94 19.7675 -5.63 20.0975 -3.25 20.4375 C-3.25 21.0975 -3.25 21.7575 -3.25 22.4375 C-4.72906892 22.46439216 -6.20827483 22.48384621 -7.6875 22.5 C-8.92306641 22.51740234 -8.92306641 22.51740234 -10.18359375 22.53515625 C-12.25 22.4375 -12.25 22.4375 -13.25 21.4375 C-13.45851406 19.02171564 -13.57454031 16.66977169 -13.625 14.25 C-13.67398437 12.93644531 -13.72296875 11.62289063 -13.7734375 10.26953125 C-12.62303581 1.84756066 -7.99735669 -0.51062259 0 0 Z " fill="#CCCCCC" transform="translate(18.25,6.5625)"/>
<path d="M0 0 C0.66 0 1.32 0 2 0 C2 0.99 2 1.98 2 3 C3.32 3 4.64 3 6 3 C6 3.66 6 4.32 6 5 C4.35 5 2.7 5 1 5 C1.33 7.97 1.66 10.94 2 14 C4.31 14.33 6.62 14.66 9 15 C9 15.66 9 16.32 9 17 C7.52093108 17.02689216 6.04172517 17.04634621 4.5625 17.0625 C3.32693359 17.07990234 3.32693359 17.07990234 2.06640625 17.09765625 C0 17 0 17 -1 16 C-1.09975032 13.48863896 -1.13882183 11.01096585 -1.125 8.5 C-1.12886719 7.79746094 -1.13273438 7.09492188 -1.13671875 6.37109375 C-1.12661378 1.12661378 -1.12661378 1.12661378 0 0 Z " fill="#D1D1D1" transform="translate(6,12)"/>
<path d="M0 0 C0.66 0 1.32 0 2 0 C2 1.32 2 2.64 2 4 C2.99 4 3.98 4 5 4 C5 4.99 5 5.98 5 7 C4.01 7 3.02 7 2 7 C2 8.32 2 9.64 2 11 C1.01 10.67 0.02 10.34 -1 10 C-1 9.01 -1 8.02 -1 7 C-1.99 7 -2.98 7 -4 7 C-4 6.01 -4 5.02 -4 4 C-3.01 4 -2.02 4 -1 4 C-0.67 2.68 -0.34 1.36 0 0 Z " fill="#B7B7B7" transform="translate(23,20)"/>
<path d="M0 0 C0.66 0.33 1.32 0.66 2 1 C3 4 3 4 2 7 C0.68 7 -0.64 7 -2 7 C-2 6.34 -2 5.68 -2 5 C-2.66 4.67 -3.32 4.34 -4 4 C-2.68 2.68 -1.36 1.36 0 0 Z " fill="#8F8F8F" transform="translate(10,7)"/>
<path d="M0 0 C1.65 0 3.3 0 5 0 C5 0.66 5 1.32 5 2 C4.01 2 3.02 2 2 2 C2 3.32 2 4.64 2 6 C1.34 6 0.68 6 0 6 C0 4.02 0 2.04 0 0 Z " fill="#C1C1C1" transform="translate(23,25)"/>
</svg>
