<?xml version="1.0" encoding="UTF-8"?>
<svg version="1.1" xmlns="http://www.w3.org/2000/svg" width="68" height="65">
<path d="M0 0 C22.44 0 44.88 0 68 0 C68 21.45 68 42.9 68 65 C45.56 65 23.12 65 0 65 C0 43.55 0 22.1 0 0 Z " fill="#BCBCBC" transform="translate(0,0)"/>
<path d="M0 0 C22.44 0 44.88 0 68 0 C68 21.45 68 42.9 68 65 C45.56 65 23.12 65 0 65 C0 43.55 0 22.1 0 0 Z M13 15 C7.87689409 22.30423021 6.08517621 29.13129158 7 38 C9.23263262 46.27530133 13.03271303 52.4674426 20.5625 56.8125 C27.25085652 60.39430618 34.27311503 61.27528861 41.6640625 59.28125 C50.39897116 56.00895794 55.06442916 51.72687901 59.01953125 43.3046875 C61.69010808 37.027236 62.07142391 30.39967103 59.875 23.875 C56.19364493 15.5373191 51.52033524 10.86837117 43.16015625 7.06640625 C32.08135371 3.32782393 21.13876288 6.9307992 13 15 Z " fill="#313131" transform="translate(0,0)"/>
<path d="M0 0 C0.99 0.33 1.98 0.66 3 1 C3 8.26 3 15.52 3 23 C1.68 23 0.36 23 -1 23 C-1.02887512 19.35418313 -1.04675585 15.70839537 -1.0625 12.0625 C-1.07087891 11.02158203 -1.07925781 9.98066406 -1.08789062 8.90820312 C-1.09272461 7.42416992 -1.09272461 7.42416992 -1.09765625 5.91015625 C-1.10289307 4.99371338 -1.10812988 4.07727051 -1.11352539 3.13305664 C-1 1 -1 1 0 0 Z " fill="#101010" transform="translate(29,21)"/>
<path d="M0 0 C1.32 0.33 2.64 0.66 4 1 C4 4.96 4 8.92 4 13 C2.68 13.33 1.36 13.66 0 14 C0 9.38 0 4.76 0 0 Z " fill="#101010" transform="translate(36,26)"/>
<path d="M0 0 C0.99 0 1.98 0 3 0 C3 2.64 3 5.28 3 8 C1.68 7.67 0.36 7.34 -1 7 C-1.04254356 5.00045254 -1.04080783 2.99958364 -1 1 C-0.67 0.67 -0.34 0.34 0 0 Z " fill="#111111" transform="translate(44,29)"/>
<path d="M0 0 C1.32 0.33 2.64 0.66 4 1 C4 2.98 4 4.96 4 7 C2.68 7.33 1.36 7.66 0 8 C0 5.36 0 2.72 0 0 Z " fill="#111111" transform="translate(21,29)"/>
</svg>
