<?xml version="1.0" encoding="UTF-8"?>
<svg version="1.1" xmlns="http://www.w3.org/2000/svg" width="38" height="36">
<path d="M0 0 C12.54 0 25.08 0 38 0 C38 11.88 38 23.76 38 36 C25.46 36 12.92 36 0 36 C0 24.12 0 12.24 0 0 Z " fill="#313131" transform="translate(0,0)"/>
<path d="M0 0 C2.24658203 -0.34057617 2.24658203 -0.34057617 5.0078125 -0.29296875 C5.99394531 -0.28330078 6.98007813 -0.27363281 7.99609375 -0.26367188 C9.02863281 -0.23853516 10.06117187 -0.21339844 11.125 -0.1875 C12.68541016 -0.16719727 12.68541016 -0.16719727 14.27734375 -0.14648438 C16.85207627 -0.11105228 19.4257833 -0.06165221 22 0 C23.38710909 2.77421818 23.30557532 5.28503631 23.5 8.375 C23.74085279 12.85870426 23.74085279 12.85870426 24.65625 17.2265625 C25 19 25 19 23 22 C20.6015625 22.38818359 20.6015625 22.38818359 17.625 22.3984375 C16.02398438 22.40423828 16.02398438 22.40423828 14.390625 22.41015625 C13.27171875 22.39855469 12.1528125 22.38695313 11 22.375 C9.88109375 22.38660156 8.7621875 22.39820312 7.609375 22.41015625 C6.54203125 22.40628906 5.4746875 22.40242188 4.375 22.3984375 C3.39273437 22.39505371 2.41046875 22.39166992 1.3984375 22.38818359 C0.60695313 22.26008301 -0.18453125 22.13198242 -1 22 C-3.54288737 18.18566895 -3.08427552 15.36890332 -2.75 11 C-2.71003906 10.27554687 -2.67007812 9.55109375 -2.62890625 8.8046875 C-2.37632238 5.10467514 -2.09499867 3.142498 0 0 Z " fill="#AFAFAF" transform="translate(8,7)"/>
<path d="M0 0 C6.6 0 13.2 0 20 0 C20 3.96 20 7.92 20 12 C13.4 12 6.8 12 0 12 C0 8.04 0 4.08 0 0 Z " fill="#323232" transform="translate(9,10)"/>
<path d="M0 0 C3.31248187 -0.02888146 6.62493167 -0.04675799 9.9375 -0.0625 C10.88302734 -0.07087891 11.82855469 -0.07925781 12.80273438 -0.08789062 C14.15141602 -0.09272461 14.15141602 -0.09272461 15.52734375 -0.09765625 C16.77632446 -0.10551147 16.77632446 -0.10551147 18.05053711 -0.11352539 C20 0 20 0 21 1 C21.23678716 3.69235776 21.42198025 6.36498156 21.5625 9.0625 C21.60568359 9.82111328 21.64886719 10.57972656 21.69335938 11.36132812 C21.79973633 13.24065438 21.90039934 15.12030244 22 17 C18.7 16.67 15.4 16.34 12 16 C12 15.67 12 15.34 12 15 C14.31 15 16.62 15 19 15 C19 10.38 19 5.76 19 1 C12.73 1 6.46 1 0 1 C0 0.67 0 0.34 0 0 Z " fill="#E1E1E1" transform="translate(10,8)"/>
</svg>
